<?xml version="1.0" encoding="utf-8"?>
<!-- Generator: Adobe Illustrator 17.1.0, SVG Export Plug-In . SVG Version: 6.00 Build 0)  -->
<!DOCTYPE svg PUBLIC "-//W3C//DTD SVG 1.1//EN" "http://www.w3.org/Graphics/SVG/1.1/DTD/svg11.dtd">
<svg version="1.1" id="Layer_1" xmlns="http://www.w3.org/2000/svg" xmlns:xlink="http://www.w3.org/1999/xlink" x="0px" y="0px"
	 viewBox="0 0 210 210" enable-background="new 0 0 210 210" xml:space="preserve">
<title>Layer 1</title>
<g>
	<defs>
		<polygon id="SVGID_1_" points="-12,-15.3 -11,-15.3 -12,-14.3 		"/>
	</defs>
	<defs>
		<polygon id="SVGID_2_" points="-14,-17.3 -15,-17.3 -14,-18.3 		"/>
	</defs>
	<clipPath id="SVGID_3_">
		<use xlink:href="#SVGID_1_"  overflow="visible"/>
	</clipPath>
	<clipPath id="SVGID_4_" clip-path="url(#SVGID_3_)">
		<use xlink:href="#SVGID_2_"  overflow="visible"/>
	</clipPath>
	<g clip-path="url(#SVGID_4_)" enable-background="new    ">
		
			<image overflow="visible" width="210" height="197" id="svg_8" xlink:href="../../../../Desktop/ItslearningAutologinProject/art/logo.png"  transform="matrix(0.9999 0 0 0.9999 -8012.3281 -7885.7832)">
		</image>
	</g>
</g>
<g>
	<defs>
		<polygon id="SVGID_5_" points="-12,-15.3 -11,-15.3 -12,-14.3 		"/>
	</defs>
	<defs>
		<polygon id="SVGID_6_" points="-14,-17.3 -15,-17.3 -14,-18.3 		"/>
	</defs>
	<clipPath id="SVGID_7_">
		<use xlink:href="#SVGID_5_"  overflow="visible"/>
	</clipPath>
	<clipPath id="SVGID_8_" clip-path="url(#SVGID_7_)">
		<use xlink:href="#SVGID_6_"  overflow="visible"/>
	</clipPath>
	<g clip-path="url(#SVGID_8_)" enable-background="new    ">
		
			<image overflow="visible" width="210" height="197" id="svg_9" xlink:href="../../../../Desktop/ItslearningAutologinProject/art/logo.png"  transform="matrix(0.9999 0 0 0.9999 -8012.3281 -7885.7832)">
		</image>
	</g>
</g>
<ellipse id="svg_19" fill="#FFFFFF" cx="250" cy="134.7" rx="0" ry="0"/>
<path id="svg_2" fill="#FF5A00" d="M12,40.5C19.7,21,39.9,7.7,60.7,7.5c47.1-0.1,94.1,0,141.2,0c0.2,46.1,0,92.3,0.1,138.4
	c0.1,11.8-3.4,23.7-10.3,33.3c-10,13.4-26.2,22.6-43.2,22.2c-64.4,2.3-79.5,0.8-88.2,0c-8.7-0.8-31.4-7.9-41.2-20.3
	c-6.7-9-11.2-20-11-31.3c0.1-25.3,0-50.6,0.1-75.9C8.2,62.6,6.8,50.8,12,40.5L12,40.5z"/>
<g>
	<image overflow="visible" width="207" height="222" xlink:href="C4053011.png"  transform="matrix(1 0 0 1 1.5 -6)">
	</image>
</g>
<path fill="#231F20" d="M98.2,138.5l-9.9-9.9l34.2-34.2c12.4,6.7,28.2,4.9,38.8-5.6c12.8-12.8,12.8-33.6,0-46.5
	c-12.8-12.8-33.6-12.8-46.5,0c-10.5,10.5-12.2,26.3-5.6,38.8l-67.4,67.5c-3.7,3.7-3.7,9.6,0,13.3c3.7,3.7,9.6,3.7,13.3,0l9.9,9.9
	c1.8,1.8,4.8,1.8,6.7,0l6.7-6.7c1.8-1.8,1.8-4.8,0-6.7l-10-10l6.7-6.7l9.9,9.9c1.8,1.8,4.8,1.8,6.7,0l6.7-6.7
	C100.1,143.4,100.1,140.4,98.2,138.5z M128.1,55.6c5.5-5.5,14.5-5.5,20,0c5.5,5.5,5.5,14.5,0,19.9c-5.5,5.5-14.5,5.5-20,0
	C122.6,70,122.6,61.1,128.1,55.6z"/>
</svg>
