<?xml version="1.0" encoding="UTF-8" ?>
<!DOCTYPE svg PUBLIC "-//W3C//DTD SVG 1.1//EN" "http://www.w3.org/Graphics/SVG/1.1/DTD/svg11.dtd">
<svg width="210pt" height="197pt" viewBox="0 0 210 197" version="1.1" xmlns="http://www.w3.org/2000/svg">
<path fill="#ffffff" d=" M 0.00 0.00 L 210.00 0.00 L 210.00 197.00 L 0.00 197.00 L 0.00 0.00 Z" />
<path fill="#ff5a00" d=" M 36.11 50.06 C 42.13 34.90 57.79 24.58 74.01 24.39 C 110.61 24.33 147.21 24.42 183.81 24.36 C 183.94 60.25 183.79 96.15 183.89 132.04 C 183.96 141.21 181.27 150.48 175.90 157.94 C 168.11 168.36 155.49 175.54 142.30 175.21 C 126.21 174.59 110.10 175.08 94.00 174.90 C 87.22 174.76 80.44 175.05 73.66 175.20 C 61.31 175.19 49.23 169.05 41.62 159.39 C 36.43 152.40 32.90 143.86 33.06 135.05 C 33.14 115.37 33.09 95.68 33.10 76.00 C 33.18 67.30 32.07 58.13 36.11 50.06 Z" />
<path fill="#d06930" d=" M 73.66 175.20 C 80.44 175.05 87.22 174.76 94.00 174.90 C 110.10 175.08 126.21 174.59 142.30 175.21 C 138.57 175.90 134.78 176.14 130.99 176.08 C 118.99 175.90 107.00 176.05 95.00 175.99 C 87.89 175.91 80.70 176.58 73.66 175.20 Z" />
</svg>
